<svg id="visual" viewBox="0 0 900 600" width="900" height="600" xmlns="http://www.w3.org/2000/svg" xmlns:xlink="http://www.w3.org/1999/xlink" version="1.1"><rect x="0" y="0" width="900" height="600" fill="#0F1014"></rect><path d="M0 466L21.5 466C43 466 86 466 128.8 448.3C171.7 430.7 214.3 395.3 257.2 386.5C300 377.7 343 395.3 385.8 425.2C428.7 455 471.3 497 514.2 513.7C557 530.3 600 521.7 642.8 505.5C685.7 489.3 728.3 465.7 771.2 448.8C814 432 857 422 878.5 417L900 412L900 601L878.5 601C857 601 814 601 771.2 601C728.3 601 685.7 601 642.8 601C600 601 557 601 514.2 601C471.3 601 428.7 601 385.8 601C343 601 300 601 257.2 601C214.3 601 171.7 601 128.8 601C86 601 43 601 21.5 601L0 601Z" fill="#0B0C10" stroke-linecap="round" stroke-linejoin="miter"></path></svg>